<svg viewBox="0 0 128 128" xmlns="http://www.w3.org/2000/svg" xmlns:xlink="http://www.w3.org/1999/xlink" width="128.000000" height="128.000000" fill="none" customFrame="#000000">
	<g id="A-Box">
		<g id="组合 1">
			<path id="矢量 9" d="M111.009 32.2208L57.7902 25.1429L57.7902 53.2112L111.009 58.7832L111.009 32.2208Z" fill="rgb(227,154,20)" fill-rule="nonzero" />
			<path id="矢量 10" d="M15.2152 34.3291L57.7901 25.1429L57.7901 57.0108L15.2152 66.197L15.2152 34.3291Z" fill="rgb(50,176,111)" fill-rule="nonzero" />
			<path id="矢量 11" d="M64.8822 44.9517L111.009 32.2208L111.009 92.4119L64.8822 105.143L64.8822 44.9517L64.8822 44.9517Z" fill="rgb(14,86,221)" fill-rule="nonzero" />
			<path id="矢量 12" d="M15.2152 34.3291L64.8821 44.9517L64.8821 104.819L15.2152 92.7594L15.2152 34.3291Z" fill="rgb(240,21,170)" fill-rule="nonzero" />
			<path id="矢量 13" d="M64.882 44.8591L15.2151 34.3291L4.57141 55.5744L56.0142 67.6335L64.882 44.8591L64.882 44.8591Z" fill="rgb(250,95,239)" fill-rule="nonzero" />
			<path id="矢量 14" d="M64.8822 44.9517L111.009 32.2208L123.429 53.4661L79.0777 67.9694L64.8822 44.9517Z" fill="rgb(46,118,254)" fill-rule="nonzero" />
		</g>
		<rect id="切片 1" />
	</g>
</svg>
